<svg xmlns="http://www.w3.org/2000/svg" height="24" width="24" viewBox="0 0 730 730" fill="var(--neutral-text)"> <path d="M603.672 530.973c-7.543.12-13.562 6.331-13.443 13.875.119 7.544 6.332 13.562 13.875 13.443 7.495-.118 13.494-6.254 13.445-13.75-.085-7.578-6.297-13.652-13.875-13.568 0 0-.001 0 0 0m0 24.398c-5.975.272-11.04-4.352-11.311-10.326-.271-5.976 4.352-11.04 10.327-11.312 5.975-.27 11.039 4.352 11.31 10.327.01.19.014.382.012.573.204 5.723-4.27 10.527-9.992 10.731-.115.005-.23.007-.346.007"/> <path d="M606.81 544.972v-.185a3.476 3.476 0 002.8-3.076 3.815 3.815 0 00-1.322-3.077 8.675 8.675 0 00-4.707-.984 27.066 27.066 0 00-5.2.431v13.538h3.077v-5.446h1.477c1.754 0 2.554.646 2.83 2.154a11.667 11.667 0 001.047 3.292h3.415a10.381 10.381 0 01-1.016-3.385 3.938 3.938 0 00-2.462-3.292m-3.723-.985h-1.508v-3.908a7.457 7.457 0 011.754 0c1.97 0 2.893.831 2.893 2.062 0 1.231-1.415 2-3.076 2m112.135-241.924c-1.938-1.539-20.03-15.199-58.181-15.199a185.562 185.562 0 00-30.061 2.584c-7.384-50.612-49.228-75.288-51.104-76.395l-10.245-5.908-6.738 9.723a137.318 137.318 0 00-18.214 42.582c-6.831 28.891-2.677 56.027 11.999 79.226-17.722 9.876-46.151 12.307-51.904 12.522H30.096c-12.293.017-22.27 9.952-22.336 22.245a338.69 338.69 0 0020.614 120.946c16.214 42.521 40.336 73.842 71.719 93.01 35.167 21.537 92.302 33.844 157.067 33.844a468.88 468.88 0 0087.226-7.907 364.649 364.649 0 00113.839-41.352 312.969 312.969 0 0077.688-63.596c37.29-42.213 59.505-89.226 76.026-131.007h6.584c40.828 0 65.935-16.338 79.78-30.029a87.08 87.08 0 0021.045-31.167l2.923-8.553z"/> <path d="M73.725 337.54h63.073a5.507 5.507 0 005.507-5.508V275.85a5.507 5.507 0 00-5.476-5.538H73.725a5.507 5.507 0 00-5.507 5.507v56.212a5.507 5.507 0 005.507 5.508m86.918.001h63.073a5.507 5.507 0 005.507-5.508V275.85a5.507 5.507 0 00-5.477-5.538h-63.104a5.537 5.537 0 00-5.538 5.538v56.181a5.54 5.54 0 005.539 5.508m88.24.001h63.073a5.507 5.507 0 005.507-5.508V275.85a5.507 5.507 0 00-5.477-5.538h-63.104a5.507 5.507 0 00-5.507 5.507v56.212a5.51 5.51 0 005.508 5.508m87.195.001h63.073a5.537 5.537 0 005.538-5.508V275.85a5.537 5.537 0 00-5.538-5.538h-63.073a5.507 5.507 0 00-5.507 5.507v56.212a5.508 5.508 0 005.507 5.508m-175.435-80.826h63.073a5.539 5.539 0 005.507-5.538v-56.18a5.507 5.507 0 00-5.507-5.508h-63.073a5.538 5.538 0 00-5.538 5.507v56.181a5.568 5.568 0 005.538 5.538m88.24 0h63.073a5.539 5.539 0 005.507-5.538v-56.18a5.507 5.507 0 00-5.507-5.508h-63.073a5.507 5.507 0 00-5.507 5.507v56.181a5.539 5.539 0 005.507 5.538m87.195 0h63.073a5.568 5.568 0 005.538-5.538v-56.18a5.537 5.537 0 00-5.538-5.508h-63.073a5.507 5.507 0 00-5.507 5.507v56.181a5.539 5.539 0 005.507 5.538m0-80.856h63.073a5.538 5.538 0 005.538-5.507v-56.213a5.537 5.537 0 00-5.538-5.507h-63.073a5.506 5.506 0 00-5.507 5.507v56.212a5.508 5.508 0 005.507 5.508m87.964 161.683h63.073a5.537 5.537 0 005.538-5.508V275.85a5.537 5.537 0 00-5.538-5.538h-63.073a5.508 5.508 0 00-5.507 5.507v56.212a5.508 5.508 0 005.507 5.508"/> </svg>